<svg xmlns="http://www.w3.org/2000/svg" width="20" height="21" viewBox="0 0 20 21" fill="none">
  <path d="M18.3332 10.4103C18.3332 9.80732 18.2791 9.22754 18.1786 8.67095H10.1699V11.9641H14.7463C14.5453 13.0231 13.9423 13.9199 13.0379 14.5228V16.6642H15.7976C17.4055 15.1799 18.3332 13 18.3332 10.4103Z" fill="#4285F4"/>
  <path d="M10.1699 18.7204C12.4658 18.7204 14.3907 17.9629 15.7976 16.6642L13.0379 14.5228C12.2803 15.033 11.314 15.3423 10.1699 15.3423C7.95902 15.3423 6.08054 13.8503 5.408 11.8404H2.57869V14.0358C3.97788 16.811 6.84585 18.7204 10.1699 18.7204Z" fill="#34A853"/>
  <path d="M5.408 11.8327C5.23793 11.3225 5.13744 10.7813 5.13744 10.217C5.13744 9.65271 5.23793 9.11158 5.408 8.60138V6.40596H2.57869C1.99891 7.55005 1.6665 8.84102 1.6665 10.217C1.6665 11.593 1.99891 12.884 2.57869 14.0281L4.78184 12.312L5.408 11.8327Z" fill="#FBBC05"/>
  <path d="M10.1699 5.09952C11.4222 5.09952 12.5354 5.53242 13.4244 6.3673L15.8595 3.93224C14.383 2.55623 12.4658 1.71362 10.1699 1.71362C6.84585 1.71362 3.97788 3.62302 2.57869 6.40596L5.408 8.60138C6.08054 6.59148 7.95902 5.09952 10.1699 5.09952Z" fill="#EA4335"/>
</svg>