<svg width="1000" height="162" viewBox="0 0 1000 162" fill="none" xmlns="http://www.w3.org/2000/svg">
<path d="M234.491 135.094V41.3105H277.096C287.278 41.3105 296.254 43.2755 304.025 47.2054C311.796 51.0461 317.869 56.4498 322.246 63.4166C326.622 70.3834 328.811 78.6452 328.811 88.2022C328.811 97.6699 326.622 105.932 322.246 112.988C317.869 119.955 311.796 125.403 304.025 129.333C296.254 133.174 287.278 135.094 277.096 135.094H234.491ZM256.195 117.275H276.024C282.276 117.275 287.68 116.114 292.235 113.792C296.88 111.38 300.452 107.986 302.953 103.61C305.543 99.2329 306.838 94.0972 306.838 88.2022C306.838 82.2179 305.543 77.0822 302.953 72.7949C300.452 68.4184 296.88 65.069 292.235 62.7467C287.68 60.3351 282.276 59.1293 276.024 59.1293H256.195V117.275Z" fill="#222222"/>
<path d="M387.917 135.094V121.026L386.577 117.945V92.7574C386.577 88.2915 385.193 84.8081 382.424 82.3073C379.745 79.8064 375.591 78.5559 369.964 78.5559C366.124 78.5559 362.328 79.1811 358.576 80.4316C354.914 81.5927 351.788 83.2004 349.198 85.2547L341.695 70.6513C345.625 67.8825 350.359 65.7388 355.897 64.2204C361.435 62.702 367.062 61.9428 372.778 61.9428C383.764 61.9428 392.294 64.5331 398.367 69.7135C404.441 74.8939 407.478 82.9771 407.478 93.9632V135.094H387.917ZM365.945 136.166C360.318 136.166 355.495 135.228 351.476 133.352C347.456 131.387 344.375 128.752 342.231 125.448C340.088 122.143 339.016 118.436 339.016 114.328C339.016 110.04 340.043 106.289 342.097 103.074C344.241 99.8582 347.59 97.3573 352.145 95.5709C356.701 93.6952 362.64 92.7574 369.964 92.7574H389.123V104.949H372.242C367.329 104.949 363.935 105.753 362.06 107.361C360.273 108.969 359.38 110.978 359.38 113.39C359.38 116.069 360.407 118.213 362.462 119.821C364.605 121.339 367.508 122.098 371.17 122.098C374.654 122.098 377.78 121.294 380.548 119.687C383.317 117.99 385.327 115.533 386.577 112.318L389.793 121.964C388.274 126.609 385.506 130.137 381.486 132.548C377.467 134.96 372.287 136.166 365.945 136.166Z" fill="#222222"/>
<path d="M455.868 136.166C447.383 136.166 440.774 134.022 436.04 129.735C431.306 125.358 428.939 118.883 428.939 110.308V47.0715H449.839V110.04C449.839 113.077 450.643 115.444 452.251 117.141C453.859 118.749 456.047 119.553 458.816 119.553C462.121 119.553 464.934 118.66 467.256 116.873L472.883 131.611C470.74 133.129 468.15 134.29 465.113 135.094C462.165 135.808 459.084 136.166 455.868 136.166ZM417.819 80.6995V64.6224H467.792V80.6995H417.819Z" fill="#222222"/>
<path d="M528.828 135.094V121.026L527.488 117.945V92.7574C527.488 88.2915 526.104 84.8081 523.335 82.3073C520.655 79.8064 516.502 78.5559 510.875 78.5559C507.034 78.5559 503.238 79.1811 499.487 80.4316C495.825 81.5927 492.699 83.2004 490.109 85.2547L482.606 70.6513C486.536 67.8825 491.27 65.7388 496.808 64.2204C502.345 62.702 507.972 61.9428 513.689 61.9428C524.675 61.9428 533.204 64.5331 539.278 69.7135C545.352 74.8939 548.388 82.9771 548.388 93.9632V135.094H528.828ZM506.856 136.166C501.229 136.166 496.406 135.228 492.386 133.352C488.367 131.387 485.286 128.752 483.142 125.448C480.998 122.143 479.927 118.436 479.927 114.328C479.927 110.04 480.954 106.289 483.008 103.074C485.152 99.8582 488.501 97.3573 493.056 95.5709C497.611 93.6952 503.551 92.7574 510.875 92.7574H530.034V104.949H513.153C508.24 104.949 504.846 105.753 502.97 107.361C501.184 108.969 500.291 110.978 500.291 113.39C500.291 116.069 501.318 118.213 503.372 119.821C505.516 121.339 508.419 122.098 512.081 122.098C515.564 122.098 518.69 121.294 521.459 119.687C524.228 117.99 526.238 115.533 527.488 112.318L530.704 121.964C529.185 126.609 526.416 130.137 522.397 132.548C518.378 134.96 513.197 136.166 506.856 136.166Z" fill="#222222"/>
<path d="M558.06 135.094L598.387 79.4938V95.303L559.802 41.3105H584.453L611.115 78.9578L600.798 79.0918L627.058 41.3105H650.638L612.32 94.3651V78.8239L652.915 135.094H627.862L600.262 95.303H610.177L582.979 135.094H558.06Z" fill="#222222"/>
<path d="M689.57 136.166C682.782 136.166 676.664 134.647 671.215 131.611C665.767 128.574 661.435 124.287 658.22 118.749C655.094 113.211 653.531 106.646 653.531 99.0543C653.531 91.5516 655.094 85.0314 658.22 79.4938C661.435 73.9561 665.767 69.6688 671.215 66.632C676.664 63.5059 682.782 61.9428 689.57 61.9428C695.912 61.9428 701.316 63.2826 705.781 65.9621C710.337 68.6417 713.82 72.7056 716.232 78.154C718.643 83.6024 719.849 90.5691 719.849 99.0543C719.849 107.45 718.598 114.417 716.098 119.955C713.597 125.403 710.069 129.467 705.513 132.146C700.958 134.826 695.644 136.166 689.57 136.166ZM693.188 119.017C696.582 119.017 699.663 118.213 702.432 116.605C705.201 114.997 707.389 112.72 708.997 109.772C710.694 106.736 711.542 103.163 711.542 99.0543C711.542 94.8564 710.694 91.2837 708.997 88.3362C707.389 85.3887 705.201 83.1111 702.432 81.5034C699.663 79.8957 696.582 79.0918 693.188 79.0918C689.704 79.0918 686.578 79.8957 683.809 81.5034C681.04 83.1111 678.807 85.3887 677.11 88.3362C675.503 91.2837 674.699 94.8564 674.699 99.0543C674.699 103.163 675.503 106.736 677.11 109.772C678.807 112.72 681.04 114.997 683.809 116.605C686.578 118.213 689.704 119.017 693.188 119.017ZM711.14 161.085V120.491L712.48 99.1883L712.078 77.7521V63.0147H732.041V161.085H711.14Z" fill="#222222"/>
<path d="M781.804 136.166C775.819 136.166 770.46 135.005 765.726 132.682C761.082 130.36 757.465 126.832 754.874 122.098C752.284 117.275 750.989 111.157 750.989 103.743V63.0147H771.889V100.662C771.889 106.646 773.14 111.068 775.641 113.926C778.231 116.695 781.848 118.079 786.493 118.079C789.708 118.079 792.566 117.409 795.067 116.069C797.568 114.64 799.533 112.497 800.962 109.638C802.391 106.691 803.106 103.029 803.106 98.6524V63.0147H824.006V135.094H804.178V115.265L807.795 121.026C805.383 126.028 801.811 129.824 797.077 132.414C792.432 134.915 787.341 136.166 781.804 136.166Z" fill="#222222"/>
<path d="M887.581 135.094V121.026L886.241 117.945V92.7574C886.241 88.2915 884.857 84.8081 882.088 82.3073C879.409 79.8064 875.255 78.5559 869.628 78.5559C865.788 78.5559 861.992 79.1811 858.24 80.4316C854.578 81.5927 851.452 83.2004 848.862 85.2547L841.359 70.6513C845.289 67.8825 850.023 65.7388 855.561 64.2204C861.098 62.702 866.725 61.9428 872.442 61.9428C883.428 61.9428 891.958 64.5331 898.031 69.7135C904.105 74.8939 907.142 82.9771 907.142 93.9632V135.094H887.581ZM865.609 136.166C859.982 136.166 855.159 135.228 851.139 133.352C847.12 131.387 844.039 128.752 841.895 125.448C839.751 122.143 838.68 118.436 838.68 114.328C838.68 110.04 839.707 106.289 841.761 103.074C843.905 99.8582 847.254 97.3573 851.809 95.5709C856.365 93.6952 862.304 92.7574 869.628 92.7574H888.787V104.949H871.906C866.993 104.949 863.599 105.753 861.724 107.361C859.937 108.969 859.044 110.978 859.044 113.39C859.044 116.069 860.071 118.213 862.126 119.821C864.269 121.339 867.172 122.098 870.834 122.098C874.317 122.098 877.443 121.294 880.212 119.687C882.981 117.99 884.991 115.533 886.241 112.318L889.457 121.964C887.938 126.609 885.17 130.137 881.15 132.548C877.131 134.96 871.95 136.166 865.609 136.166Z" fill="#222222"/>
<path d="M957.529 136.166C950.741 136.166 944.623 134.647 939.175 131.611C933.726 128.484 929.394 124.153 926.179 118.615C923.053 113.077 921.49 106.557 921.49 99.0543C921.49 91.4623 923.053 84.8975 926.179 79.3598C929.394 73.8221 933.726 69.5348 939.175 66.498C944.623 63.4612 950.741 61.9428 957.529 61.9428C963.603 61.9428 968.917 63.2826 973.472 65.9621C978.028 68.6417 981.556 72.7056 984.057 78.154C986.558 83.6024 987.808 90.5691 987.808 99.0543C987.808 107.45 986.602 114.417 984.191 119.955C981.779 125.403 978.296 129.467 973.74 132.146C969.275 134.826 963.871 136.166 957.529 136.166ZM961.147 119.017C964.541 119.017 967.622 118.213 970.391 116.605C973.16 114.997 975.348 112.72 976.956 109.772C978.653 106.736 979.501 103.163 979.501 99.0543C979.501 94.8564 978.653 91.2837 976.956 88.3362C975.348 85.3887 973.16 83.1111 970.391 81.5034C967.622 79.8957 964.541 79.0918 961.147 79.0918C957.663 79.0918 954.537 79.8957 951.768 81.5034C948.999 83.1111 946.766 85.3887 945.069 88.3362C943.462 91.2837 942.658 94.8564 942.658 99.0543C942.658 103.163 943.462 106.736 945.069 109.772C946.766 112.72 948.999 114.997 951.768 116.605C954.537 118.213 957.663 119.017 961.147 119.017ZM980.037 135.094V120.357L980.439 98.9203L979.1 77.6181V35.6835H1000V135.094H980.037Z" fill="#222222"/>
<path fill-rule="evenodd" clip-rule="evenodd" d="M60.0026 78.458L2.99522 0H45.3891L82.3663 52.1506L118.657 0H159.208L102.959 77.7886L163.124 161.085H120.039L81.1639 105.105L69.3509 90.8615L66.6389 87.5914L60.0026 78.458Z" fill="#C69048"/>
<path d="M80.291 106.381L81.1639 105.105L69.3509 90.8615V91.324L80.291 106.381Z" fill="#C69048"/>
<path d="M69.3509 90.8615L66.6389 87.5914L69.3509 91.324V90.8615Z" fill="#C69048"/>
<path d="M120.039 161.085L81.1639 105.105L80.291 106.381L120.039 161.085Z" fill="#C69048"/>
<path d="M58.1131 132.029C58.1131 148.076 45.104 161.085 29.0565 161.085C13.0091 161.085 0 148.076 0 132.029C0 115.981 13.0091 102.972 29.0565 102.972C45.104 102.972 58.1131 115.981 58.1131 132.029Z" fill="#C69048"/>
</svg>
